<svg xmlns="http://www.w3.org/2000/svg" version="1.1" xmlns:xlink="http://www.w3.org/1999/xlink" xmlns:svgjs="http://svgjs.com/svgjs" width="1440" height="1080" preserveAspectRatio="none" viewBox="0 0 1440 1080"><g mask="url(&quot;#SvgjsMask1019&quot;)" fill="none"><path d="M842.123651598539-29.54559410830015L803.0451910598513 338.88318988772954 1101.170306417581 212.33658633878963z" fill="rgba(28, 83, 142, 0.4)" class="triangle-float3"></path><path d="M715.075,397.499C782.48,400.903,857.926,389.579,892.02,331.333C926.342,272.697,899.487,201.126,863.895,143.253C830.376,88.751,779.057,44.12,715.075,43.618C650.328,43.11,593.243,84.088,562.155,140.886C532.296,195.439,534.756,261.478,566.592,314.901C597.667,367.047,654.449,394.438,715.075,397.499" fill="rgba(28, 83, 142, 0.4)" class="triangle-float3"></path><path d="M622.7650256475079 272.0262098494326L722.1446167294025 99.89570886017225 414.25906970456464 36.89157273196048z" fill="rgba(28, 83, 142, 0.4)" class="triangle-float3"></path><path d="M5.115973490699854 399.88986574543975L-13.814179798334852 554.0635920660011 226.91148632702445 505.37195883927245z" fill="rgba(28, 83, 142, 0.4)" class="triangle-float3"></path><path d="M951.5520218625826 358.6958359267327L796.4999405777553 627.2539185313531 1065.0580231823756 782.3059998161804 1220.110104467203 513.74791721156z" fill="rgba(28, 83, 142, 0.4)" class="triangle-float2"></path><path d="M201.054,1275.396C323.38,1275.519,442.421,1211.61,496.123,1101.702C544.989,1001.691,499.027,887.355,435.216,796.15C381.678,719.628,294.305,685.07,201.054,679.962C95.262,674.167,-21.543,680.938,-82.196,767.81C-150.399,865.495,-151.043,997.072,-92.987,1101.109C-33.48,1207.747,78.936,1275.273,201.054,1275.396" fill="rgba(28, 83, 142, 0.4)" class="triangle-float2"></path><path d="M369.3765796199596 1058.3381465347159L533.6839306813517 1114.913704571632 536.39359220603 840.1648989610856z" fill="rgba(28, 83, 142, 0.4)" class="triangle-float3"></path><path d="M311.24893068031616 608.8821624948795L178.0214684256046 761.8481568094007 351.4694056042673 798.7156539648553z" fill="rgba(28, 83, 142, 0.4)" class="triangle-float2"></path><path d="M-46.860783413638856 222.76041109035924L191.79308264132953 222.76041109035918 191.79308264132948-15.893454964609191-46.8607834136389-15.893454964609134z" fill="rgba(28, 83, 142, 0.4)" class="triangle-float1"></path></g><defs><mask id="SvgjsMask1019"><rect width="1440" height="1080" fill="#ffffff"></rect></mask><style>
            @keyframes float1 {
                0%{transform: translate(0, 0)}
                50%{transform: translate(-10px, 0)}
                100%{transform: translate(0, 0)}
            }

            .triangle-float1 {
                animation: float1 4s infinite;
            }

            @keyframes float2 {
                0%{transform: translate(0, 0)}
                50%{transform: translate(-5px, -5px)}
                100%{transform: translate(0, 0)}
            }

            .triangle-float2 {
                animation: float2 5s infinite;
            }

            @keyframes float3 {
                0%{transform: translate(0, 0)}
                50%{transform: translate(0, -10px)}
                100%{transform: translate(0, 0)}
            }

            .triangle-float3 {
                animation: float3 6s infinite;
            }
        </style>
    </defs>
</svg>
