<svg id="visual" viewBox="0 0 900 600" width="900" height="600" xmlns="http://www.w3.org/2000/svg" xmlns:xlink="http://www.w3.org/1999/xlink" version="1.1"><rect x="0" y="0" width="900" height="600" fill="#001220"></rect><path d="M0 365L21.5 366.8C43 368.7 86 372.3 128.8 382C171.7 391.7 214.3 407.3 257.2 413.7C300 420 343 417 385.8 410C428.7 403 471.3 392 514.2 396.7C557 401.3 600 421.7 642.8 428.5C685.7 435.3 728.3 428.7 771.2 427.2C814 425.7 857 429.3 878.5 431.2L900 433L900 601L878.5 601C857 601 814 601 771.2 601C728.3 601 685.7 601 642.8 601C600 601 557 601 514.2 601C471.3 601 428.7 601 385.8 601C343 601 300 601 257.2 601C214.3 601 171.7 601 128.8 601C86 601 43 601 21.5 601L0 601Z" fill="#0066ff"></path><path d="M0 462L21.5 464C43 466 86 470 128.8 462.2C171.7 454.3 214.3 434.7 257.2 429.8C300 425 343 435 385.8 439.2C428.7 443.3 471.3 441.7 514.2 433C557 424.3 600 408.7 642.8 406C685.7 403.3 728.3 413.7 771.2 415.2C814 416.7 857 409.3 878.5 405.7L900 402L900 601L878.5 601C857 601 814 601 771.2 601C728.3 601 685.7 601 642.8 601C600 601 557 601 514.2 601C471.3 601 428.7 601 385.8 601C343 601 300 601 257.2 601C214.3 601 171.7 601 128.8 601C86 601 43 601 21.5 601L0 601Z" fill="#007aff"></path><path d="M0 452L21.5 459.3C43 466.7 86 481.3 128.8 490.7C171.7 500 214.3 504 257.2 496.7C300 489.3 343 470.7 385.8 467.2C428.7 463.7 471.3 475.3 514.2 482.2C557 489 600 491 642.8 490C685.7 489 728.3 485 771.2 478.8C814 472.7 857 464.3 878.5 460.2L900 456L900 601L878.5 601C857 601 814 601 771.2 601C728.3 601 685.7 601 642.8 601C600 601 557 601 514.2 601C471.3 601 428.7 601 385.8 601C343 601 300 601 257.2 601C214.3 601 171.7 601 128.8 601C86 601 43 601 21.5 601L0 601Z" fill="#008cff"></path><path d="M0 526L21.5 527.2C43 528.3 86 530.7 128.8 532.2C171.7 533.7 214.3 534.3 257.2 528.8C300 523.3 343 511.7 385.8 507C428.7 502.3 471.3 504.7 514.2 509.8C557 515 600 523 642.8 524.7C685.7 526.3 728.3 521.7 771.2 516C814 510.3 857 503.7 878.5 500.3L900 497L900 601L878.5 601C857 601 814 601 771.2 601C728.3 601 685.7 601 642.8 601C600 601 557 601 514.2 601C471.3 601 428.7 601 385.8 601C343 601 300 601 257.2 601C214.3 601 171.7 601 128.8 601C86 601 43 601 21.5 601L0 601Z" fill="#2b9dfc"></path><path d="M0 572L21.5 565C43 558 86 544 128.8 538.8C171.7 533.7 214.3 537.3 257.2 543C300 548.7 343 556.3 385.8 558.5C428.7 560.7 471.3 557.3 514.2 552.3C557 547.3 600 540.7 642.8 541.8C685.7 543 728.3 552 771.2 555.8C814 559.7 857 558.3 878.5 557.7L900 557L900 601L878.5 601C857 601 814 601 771.2 601C728.3 601 685.7 601 642.8 601C600 601 557 601 514.2 601C471.3 601 428.7 601 385.8 601C343 601 300 601 257.2 601C214.3 601 171.7 601 128.8 601C86 601 43 601 21.5 601L0 601Z" fill="#4facf7"></path></svg>